# xmcd
#
# Track frame offsets: 
#        213
#        16802
#        36615
#        57437
#        73204
#        89227
#        112732
#        131561
#        146391
#        175241
#
# Disc length: 2591 seconds
#
# Revision: 0
# Processed by: cddbd v1.5.2PL0 Copyright (c) Steve Scherf et al.
# Submitted via: ExactAudioCopy v1.0b1
#
DISCID=910a1d0a
DTITLE=Various Artist - Words and Music Nashville
DYEAR=2008
DGENRE=Country
TTITLE0=Dirt
TTITLE1=Heaven Is A Small Town
TTITLE2=Walkaway Joe
TTITLE3=I Found Myself Dancin'
TTITLE4=Yeah She Does
TTITLE5=Memphis
TTITLE6=Play The One I Like
TTITLE7=I'm Not Ready
TTITLE8=Bullets
TTITLE9=Home Free
EXTD=
EXTT0=
EXTT1=
EXTT2=
EXTT3=
EXTT4=
EXTT5=
EXTT6=
EXTT7=
EXTT8=
EXTT9=
PLAYORDER=
